<svg width="145" height="66" viewBox="0 0 145 66" fill="none" xmlns="http://www.w3.org/2000/svg">
<path d="M2.22536 41V37.3339L16.8043 16.8776H2.19683V11.785H24.5646V15.4511L9.97134 35.9073H24.5931V41H2.22536ZM40.33 11.785V41H34.1532V11.785H40.33ZM55.5105 11.785L62.5718 33.9815H62.8428L69.9183 11.785H76.7656L66.6944 41H58.7344L48.649 11.785H55.5105ZM110.302 26.3925C110.302 29.5784 109.698 32.2888 108.49 34.5236C107.292 36.7585 105.656 38.4656 103.583 39.6448C101.519 40.8146 99.1988 41.3994 96.6215 41.3994C94.0253 41.3994 91.6953 40.8098 89.6316 39.6305C87.5679 38.4513 85.9369 36.7442 84.7387 34.5094C83.5404 32.2745 82.9412 29.5689 82.9412 26.3925C82.9412 23.2066 83.5404 20.4962 84.7387 18.2614C85.9369 16.0265 87.5679 14.3242 89.6316 13.1544C91.6953 11.9752 94.0253 11.3856 96.6215 11.3856C99.1988 11.3856 101.519 11.9752 103.583 13.1544C105.656 14.3242 107.292 16.0265 108.49 18.2614C109.698 20.4962 110.302 23.2066 110.302 26.3925ZM104.039 26.3925C104.039 24.3288 103.73 22.5885 103.112 21.1715C102.504 19.7544 101.643 18.6798 100.53 17.9475C99.4175 17.2153 98.1146 16.8491 96.6215 16.8491C95.1284 16.8491 93.8256 17.2153 92.7129 17.9475C91.6002 18.6798 90.7348 19.7544 90.1166 21.1715C89.508 22.5885 89.2036 24.3288 89.2036 26.3925C89.2036 28.4562 89.508 30.1965 90.1166 31.6135C90.7348 33.0305 91.6002 34.1052 92.7129 34.8375C93.8256 35.5697 95.1284 35.9359 96.6215 35.9359C98.1146 35.9359 99.4175 35.5697 100.53 34.8375C101.643 34.1052 102.504 33.0305 103.112 31.6135C103.73 30.1965 104.039 28.4562 104.039 26.3925ZM119.698 41V11.785H125.875V24.6664H126.26L136.773 11.785H144.177L133.335 24.8661L144.305 41H136.916L128.913 28.9887L125.875 32.6977V41H119.698Z" fill="#00DC5A"/>
<path d="M7.57571 54.6204V62.7053H5.88608V56.01H2.61735V62.7053H0.927719V54.6204H7.57571ZM10.8538 62.8159V61.4263H11.292C11.5104 61.4263 11.6868 61.3999 11.821 61.3473C11.9552 61.292 12.0618 61.2118 12.1408 61.1065C12.2223 60.9986 12.2908 60.8644 12.346 60.7038L12.4447 60.4393L9.50762 54.6204H11.2762L13.179 58.5997L14.77 54.6204H16.5149L13.7277 61.1183C13.5935 61.4184 13.4343 61.6973 13.2501 61.9553C13.0685 62.2132 12.8356 62.4211 12.5513 62.579C12.2671 62.7369 11.9039 62.8159 11.4617 62.8159H10.8538ZM20.9269 55.4889H22.735C23.3824 55.4889 23.9562 55.6257 24.4562 55.8994C24.9589 56.1731 25.3523 56.5587 25.6366 57.0561C25.9234 57.5509 26.0669 58.1325 26.0669 58.801C26.0669 59.4484 25.9234 60.013 25.6366 60.4946C25.3523 60.9762 24.9589 61.3512 24.4562 61.6197C23.9562 61.8855 23.3824 62.0184 22.735 62.0184H20.9269C20.2769 62.0184 19.7005 61.8868 19.1978 61.6236C18.6951 61.3578 18.3004 60.9841 18.0135 60.5025C17.7293 60.0209 17.5871 59.4524 17.5871 58.7971C17.5871 58.1286 17.7306 57.5469 18.0174 57.0522C18.3069 56.5547 18.703 56.1705 19.2057 55.8994C19.7084 55.6257 20.2821 55.4889 20.9269 55.4889ZM20.9269 56.9179C20.5795 56.9179 20.2729 56.9877 20.0071 57.1272C19.7439 57.264 19.5386 57.4719 19.3913 57.7509C19.2439 58.0299 19.1702 58.3786 19.1702 58.7971C19.1702 59.1971 19.2452 59.53 19.3952 59.7958C19.5478 60.0617 19.7558 60.2604 20.0189 60.3919C20.2821 60.5235 20.5848 60.5893 20.9269 60.5893H22.7468C23.0916 60.5893 23.3929 60.5222 23.6509 60.388C23.9114 60.2538 24.1128 60.0538 24.2549 59.7879C24.3996 59.5221 24.472 59.1932 24.472 58.801C24.472 58.3825 24.3996 58.0338 24.2549 57.7549C24.1128 57.4759 23.9114 57.2667 23.6509 57.1272C23.3929 56.9877 23.0916 56.9179 22.7468 56.9179H20.9269ZM22.6402 54.4782V63.0369H21.0177V54.4782H22.6402ZM28.1044 54.6204H29.8098V59.705H29.8769L33.3707 54.6204H34.8669V62.7053H33.1575V57.6167H33.0983L29.5848 62.7053H28.1044V54.6204ZM40.1005 56.0297V54.6204H46.7406V56.0297H44.2654V62.7053H42.5758V56.0297H40.1005ZM48.6123 62.7053V54.6204H51.8021C52.4153 54.6204 52.9377 54.7375 53.3694 54.9717C53.801 55.2033 54.13 55.5257 54.3563 55.9389C54.5853 56.3495 54.6998 56.8232 54.6998 57.3601C54.6998 57.897 54.584 58.3707 54.3524 58.7813C54.1208 59.1918 53.7852 59.5116 53.3457 59.7406C52.9088 59.9695 52.3798 60.084 51.7587 60.084H49.7256V58.7142H51.4823C51.8113 58.7142 52.0824 58.6576 52.2956 58.5444C52.5114 58.4286 52.6719 58.2694 52.7772 58.0667C52.8851 57.8614 52.9391 57.6259 52.9391 57.3601C52.9391 57.0916 52.8851 56.8574 52.7772 56.6574C52.6719 56.4547 52.5114 56.2981 52.2956 56.1876C52.0798 56.0744 51.8061 56.0179 51.4744 56.0179H50.3217V62.7053H48.6123ZM57.0481 62.7053H55.2164L58.0074 54.6204H60.2103L62.9974 62.7053H61.1656L59.1404 56.4679H59.0773L57.0481 62.7053ZM56.9337 59.5274H61.2604V60.8617H56.9337V59.5274ZM64.7487 62.7053V54.6204H66.4581V57.9562H69.9281V54.6204H71.6335V62.7053H69.9281V59.3655H66.4581V62.7053H64.7487ZM80.9546 57.4509H79.2255C79.1939 57.2272 79.1295 57.0285 79.0321 56.8548C78.9347 56.6784 78.8097 56.5284 78.657 56.4047C78.5044 56.281 78.3281 56.1863 78.128 56.1205C77.9307 56.0547 77.7162 56.0218 77.4846 56.0218C77.0661 56.0218 76.7016 56.1258 76.391 56.3337C76.0805 56.539 75.8397 56.839 75.6686 57.2338C75.4975 57.6259 75.412 58.1023 75.412 58.6628C75.412 59.2392 75.4975 59.7235 75.6686 60.1156C75.8423 60.5077 76.0844 60.8038 76.395 61.0038C76.7055 61.2039 77.0648 61.3039 77.4727 61.3039C77.7017 61.3039 77.9135 61.2736 78.1083 61.2131C78.3057 61.1525 78.4807 61.0644 78.6334 60.9486C78.786 60.8301 78.9123 60.6867 79.0123 60.5183C79.115 60.3498 79.186 60.1577 79.2255 59.9419L80.9546 59.9498C80.9099 60.3209 80.798 60.6788 80.6191 61.0236C80.4427 61.3657 80.2046 61.6723 79.9045 61.9434C79.6071 62.2119 79.2518 62.425 78.8386 62.5829C78.4281 62.7382 77.9636 62.8159 77.4451 62.8159C76.724 62.8159 76.0792 62.6527 75.5107 62.3263C74.9448 62 74.4974 61.5276 74.1685 60.9091C73.8421 60.2906 73.6789 59.5419 73.6789 58.6628C73.6789 57.7812 73.8447 57.0311 74.1764 56.4126C74.508 55.7941 74.958 55.3231 75.5265 54.9993C76.095 54.673 76.7345 54.5098 77.4451 54.5098C77.9135 54.5098 78.3478 54.5756 78.7478 54.7072C79.1505 54.8388 79.5071 55.0309 79.8177 55.2836C80.1282 55.5336 80.3809 55.8402 80.5756 56.2034C80.773 56.5666 80.8994 56.9824 80.9546 57.4509ZM86.1562 55.4889H87.9643C88.6117 55.4889 89.1855 55.6257 89.6855 55.8994C90.1882 56.1731 90.5817 56.5587 90.8659 57.0561C91.1528 57.5509 91.2962 58.1325 91.2962 58.801C91.2962 59.4484 91.1528 60.013 90.8659 60.4946C90.5817 60.9762 90.1882 61.3512 89.6855 61.6197C89.1855 61.8855 88.6117 62.0184 87.9643 62.0184H86.1562C85.5062 62.0184 84.9298 61.8868 84.4271 61.6236C83.9245 61.3578 83.5297 60.9841 83.2428 60.5025C82.9586 60.0209 82.8165 59.4524 82.8165 58.7971C82.8165 58.1286 82.9599 57.5469 83.2468 57.0522C83.5363 56.5547 83.9323 56.1705 84.435 55.8994C84.9377 55.6257 85.5114 55.4889 86.1562 55.4889ZM86.1562 56.9179C85.8088 56.9179 85.5022 56.9877 85.2364 57.1272C84.9732 57.264 84.768 57.4719 84.6206 57.7509C84.4732 58.0299 84.3995 58.3786 84.3995 58.7971C84.3995 59.1971 84.4745 59.53 84.6245 59.7958C84.7772 60.0617 84.9851 60.2604 85.2483 60.3919C85.5114 60.5235 85.8141 60.5893 86.1562 60.5893H87.9761C88.3209 60.5893 88.6223 60.5222 88.8802 60.388C89.1407 60.2538 89.3421 60.0538 89.4842 59.7879C89.6289 59.5221 89.7013 59.1932 89.7013 58.801C89.7013 58.3825 89.6289 58.0338 89.4842 57.7549C89.3421 57.4759 89.1407 57.2667 88.8802 57.1272C88.6223 56.9877 88.3209 56.9179 87.9761 56.9179H86.1562ZM87.8696 54.4782V63.0369H86.247V54.4782H87.8696ZM100.763 58.6628C100.763 59.5445 100.596 60.2946 100.262 60.913C99.9304 61.5315 99.4777 62.0039 98.904 62.3303C98.3329 62.654 97.6907 62.8159 96.9775 62.8159C96.259 62.8159 95.6142 62.6527 95.0431 62.3263C94.472 62 94.0206 61.5276 93.689 60.9091C93.3574 60.2906 93.1916 59.5419 93.1916 58.6628C93.1916 57.7812 93.3574 57.0311 93.689 56.4126C94.0206 55.7941 94.472 55.3231 95.0431 54.9993C95.6142 54.673 96.259 54.5098 96.9775 54.5098C97.6907 54.5098 98.3329 54.673 98.904 54.9993C99.4777 55.3231 99.9304 55.7941 100.262 56.4126C100.596 57.0311 100.763 57.7812 100.763 58.6628ZM99.0303 58.6628C99.0303 58.0917 98.9448 57.6101 98.7737 57.218C98.6053 56.8258 98.3671 56.5284 98.0592 56.3258C97.7512 56.1231 97.3907 56.0218 96.9775 56.0218C96.5643 56.0218 96.2037 56.1231 95.8958 56.3258C95.5879 56.5284 95.3484 56.8258 95.1773 57.218C95.0089 57.6101 94.9246 58.0917 94.9246 58.6628C94.9246 59.2339 95.0089 59.7156 95.1773 60.1077C95.3484 60.4999 95.5879 60.7972 95.8958 60.9999C96.2037 61.2025 96.5643 61.3039 96.9775 61.3039C97.3907 61.3039 97.7512 61.2025 98.0592 60.9999C98.3671 60.7972 98.6053 60.4999 98.7737 60.1077C98.9448 59.7156 99.0303 59.2339 99.0303 58.6628ZM102.808 62.7053V54.6204H105.998C106.611 54.6204 107.133 54.7375 107.565 54.9717C107.996 55.2033 108.325 55.5257 108.552 55.9389C108.781 56.3495 108.895 56.8232 108.895 57.3601C108.895 57.897 108.779 58.3707 108.548 58.7813C108.316 59.1918 107.981 59.5116 107.541 59.7406C107.104 59.9695 106.575 60.084 105.954 60.084H103.921V58.7142H105.678C106.007 58.7142 106.278 58.6576 106.491 58.5444C106.707 58.4286 106.867 58.2694 106.973 58.0667C107.081 57.8614 107.134 57.6259 107.134 57.3601C107.134 57.0916 107.081 56.8574 106.973 56.6574C106.867 56.4547 106.707 56.2981 106.491 56.1876C106.275 56.0744 106.001 56.0179 105.67 56.0179H104.517V62.7053H102.808ZM110.784 54.6204H112.892L115.118 60.0524H115.213L117.44 54.6204H119.548V62.7053H117.89V57.443H117.822L115.73 62.6658H114.601L112.509 57.4232H112.442V62.7053H110.784V54.6204ZM121.734 62.7053V54.6204H127.182V56.0297H123.444V57.9562H126.902V59.3655H123.444V61.296H127.198V62.7053H121.734ZM129.319 62.7053V54.6204H132.509C133.122 54.6204 133.645 54.7375 134.076 54.9717C134.508 55.2033 134.837 55.5257 135.063 55.9389C135.292 56.3495 135.407 56.8232 135.407 57.3601C135.407 57.897 135.291 58.3707 135.059 58.7813C134.828 59.1918 134.492 59.5116 134.053 59.7406C133.616 59.9695 133.087 60.084 132.466 60.084H130.433V58.7142H132.189C132.518 58.7142 132.789 58.6576 133.002 58.5444C133.218 58.4286 133.379 58.2694 133.484 58.0667C133.592 57.8614 133.646 57.6259 133.646 57.3601C133.646 57.0916 133.592 56.8574 133.484 56.6574C133.379 56.4547 133.218 56.2981 133.002 56.1876C132.787 56.0744 132.513 56.0179 132.181 56.0179H131.029V62.7053H129.319ZM137.295 54.6204H139.001V59.705H139.068L142.561 54.6204H144.058V62.7053H142.348V57.6167H142.289L138.776 62.7053H137.295V54.6204Z" fill="#00DC5A"/>
</svg>
